<svg xmlns="http://www.w3.org/2000/svg" aria-hidden="true" version="1.1">
    <symbol fill="none" xmlns="http://www.w3.org/2000/svg" viewBox="0 0 20 20" id="arrow-down">
        <path d="M10.5919 11.1667C10.5145 11.2448 10.4223 11.3068 10.3207 11.3492C10.2192 11.3915 10.1103 11.4132 10.0003 11.4132C9.89025 11.4132 9.78133 11.3915 9.67978 11.3492C9.57823 11.3068 9.48606 11.2448 9.40859 11.1667L5.59192 7.34174C5.51445 7.26364 5.42229 7.20164 5.32074 7.15933C5.21919 7.11702 5.11026 7.09524 5.00025 7.09524C4.89024 7.09524 4.78132 7.11702 4.67977 7.15933C4.57822 7.20164 4.48606 7.26364 4.40859 7.34174C4.25338 7.49788 4.16626 7.70909 4.16626 7.92924C4.16626 8.1494 4.25338 8.36061 4.40859 8.51674L8.23359 12.3417C8.70234 12.8099 9.33776 13.0729 10.0003 13.0729C10.6628 13.0729 11.2982 12.8099 11.7669 12.3417L15.5919 8.51674C15.7459 8.36153 15.8327 8.15203 15.8336 7.93341C15.8342 7.82374 15.8132 7.71502 15.7717 7.61349C15.7303 7.51195 15.6692 7.41961 15.5919 7.34174C15.5145 7.26364 15.4223 7.20164 15.3207 7.15933C15.2192 7.11702 15.1103 7.09524 15.0003 7.09524C14.8903 7.09524 14.7813 7.11702 14.6798 7.15933C14.5782 7.20164 14.4861 7.26364 14.4086 7.34174L10.5919 11.1667Z"
              fill="currentColor"></path>
    </symbol>
    <symbol fill="none" xmlns="http://www.w3.org/2000/svg" viewBox="0 0 40 28" id="menu">
        <line x1="7.58691" y1="4.43939" x2="38.5" y2="4.43939" stroke="currentColor" stroke-width="3" stroke-linecap="round"></line>
        <line x1="7.58691" y1="21.4091" x2="38.5" y2="21.4091" stroke="currentColor" stroke-width="3" stroke-linecap="round"></line>
        <line x1="17.1521" y1="12.9243" x2="38.4999" y2="12.9243" stroke="currentColor" stroke-width="3" stroke-linecap="round"></line>
    </symbol>
    <symbol fill="none" xmlns="http://www.w3.org/2000/svg" viewBox="0 0 40 40" id="close">
        <path d="M30 10L10 30" stroke="currentColor" stroke-width="3" stroke-linecap="round" stroke-linejoin="round"></path>
        <path d="M10 10L30 30" stroke="currentColor" stroke-width="3" stroke-linecap="round" stroke-linejoin="round"></path>
    </symbol>
    <symbol fill="none" xmlns="http://www.w3.org/2000/svg" viewBox="0 0 20 20" id="check">
        <path d="M16.6667 5L7.50001 14.1667L3.33334 10" stroke="currentColor" stroke-width="2" stroke-linecap="round" stroke-linejoin="round"></path>
    </symbol>
    <symbol viewBox="0 0 20 20" id="check-circle">
        <circle cx="10" cy="10" r="10" />
        <path d="M14 7L8.5 13L6 10.2727" fill="none" stroke="white" stroke-width="1.5" stroke-linecap="round" stroke-linejoin="round" />
    </symbol>
    <symbol fill="none" xmlns="http://www.w3.org/2000/svg" viewBox="0 0 28 28" id="youtube">
        <path d="M21.21 5.24986C20.02 5.17986 17.57 5.10986 13.86 5.10986H13.37C9.80004 5.10986 7.42007 5.17986 6.23007 5.31986C4.62007 5.45986 3.50004 5.87986 2.87004 6.43986C2.31004 6.92986 1.89005 7.83986 1.75005 9.02986C1.68005 9.79986 1.61005 11.4099 1.61005 13.8599V14.2099C1.61005 16.5199 1.68004 18.1299 1.82004 18.8999C2.03004 20.0199 2.38007 20.8599 3.08007 21.3499C3.78007 21.9099 4.97005 22.2599 6.65005 22.3999C7.84005 22.4699 10.2901 22.5399 14.0001 22.5399H14.4901C18.0601 22.5399 20.4401 22.4699 21.6301 22.3299C23.2401 22.1899 24.3601 21.7699 24.9901 21.2099C25.5501 20.7199 25.97 19.8099 26.11 18.6199C26.18 17.8499 26.2501 16.2399 26.2501 13.7899V13.4399C26.2501 11.1299 26.1801 9.51986 26.0401 8.74986C25.8301 7.62986 25.4801 6.78986 24.7801 6.29986C24.0801 5.73986 22.89 5.38986 21.21 5.24986ZM18.4801 13.8599L10.7801 18.4799V9.23986L18.4801 13.8599Z"
              fill="currentColor"/>
    </symbol>
    <symbol fill="none" xmlns="http://www.w3.org/2000/svg" viewBox="0 0 28 28" id="instagram">
        <path d="M25.1279 9.41145C25.1142 8.47139 24.9401 7.53878 24.6067 6.65957C24.0233 5.15821 22.8354 3.97103 21.3315 3.38985C20.4621 3.06325 19.5428 2.88816 18.6124 2.86829C17.4158 2.81489 17.0364 2.79999 13.9988 2.79999C10.9612 2.79999 10.5719 2.79999 9.38397 2.86829C8.45478 2.88816 7.53554 3.06325 6.66606 3.38985C5.1622 3.97103 3.97304 5.15821 3.3909 6.65957C3.06375 7.52761 2.88712 8.44532 2.86971 9.37296C2.81622 10.5688 2.80005 10.9476 2.80005 13.9801C2.80005 17.0127 2.80005 17.4001 2.86971 18.5873C2.88837 19.5162 3.06375 20.4326 3.3909 21.3032C3.97428 22.8033 5.1622 23.9905 6.66731 24.5716C7.53306 24.9094 8.45229 25.1006 9.38521 25.1304C10.5831 25.1838 10.9625 25.2 14 25.2C17.0376 25.2 17.427 25.2 18.6149 25.1304C19.5441 25.1118 20.4633 24.9367 21.334 24.6101C22.8379 24.0277 24.0258 22.8405 24.6092 21.3404C24.9363 20.4711 25.1117 19.5547 25.1304 18.6245C25.1839 17.4299 25.2 17.0511 25.2 14.0174C25.1976 10.9848 25.1976 10.5999 25.1279 9.41145ZM13.9913 19.7149C10.8144 19.7149 8.24083 17.1455 8.24083 13.9739C8.24083 10.8023 10.8144 8.23296 13.9913 8.23296C17.1658 8.23296 19.7419 10.8023 19.7419 13.9739C19.7419 17.1455 17.1658 19.7149 13.9913 19.7149ZM19.9707 9.3593C19.2281 9.3593 18.6298 8.76074 18.6298 8.02061C18.6298 7.28049 19.2281 6.68193 19.9707 6.68193C20.7108 6.68193 21.3104 7.28049 21.3104 8.02061C21.3104 8.76074 20.7108 9.3593 19.9707 9.3593Z"
              fill="currentColor"></path>
        <path d="M13.9931 17.479C15.9281 17.479 17.4966 15.9104 17.4966 13.9755C17.4966 12.0406 15.9281 10.472 13.9931 10.472C12.0582 10.472 10.4896 12.0406 10.4896 13.9755C10.4896 15.9104 12.0582 17.479 13.9931 17.479Z"
              fill="currentColor"></path>
    </symbol>
    <symbol fill="none" xmlns="http://www.w3.org/2000/svg" viewBox="0 0 28 28" id="facebook">
        <path d="M17.08 4.06014C17.29 4.06014 17.5 4.06014 17.92 4.06014V7.21014C17.71 7.21014 17.29 7.21014 16.87 7.21014C16.45 7.21014 16.03 7.21014 15.82 7.42014C15.61 7.63014 15.61 7.84014 15.61 8.33014C15.61 8.75014 15.61 9.03014 15.61 9.45014H17.92V12.1101H15.61V23.6601H12.04V12.0401H10.15V9.38014H12.04V8.47014C12.04 6.93014 12.25 5.81014 12.67 5.32014C13.3 4.41014 14.56 3.99014 16.45 3.99014C16.66 4.06014 16.87 4.06014 17.08 4.06014Z"
              fill="currentColor"></path>
    </symbol>
</svg>